# xmcd
#
# Track frame offsets:
#   150
#   16237
#   34142
#   59675
#   78604
#   93841
#   117305
#   136332
#   152621
#   168092
#   185917
#   197138
#   215691
#   231827
#   249057
#   267035
#   282039
#   300185
#   317275
#
# Disc length: 4448 seconds
#
# Revision: 0
# Processed by: cddbd v1.5.2PL0 Copyright (c) Steve Scherf et al.
# Submitted via: uFREEDB ActiveX Control 1.5
#
DISCID=f6115e13
DTITLE=varius - varius
DYEAR=1900
DGENRE=Children's Music
TTITLE0=f
TTITLE1=1
TTITLE2=2
TTITLE3=
TTITLE4=j
TTITLE5=3
TTITLE6=g
TTITLE7=oiu
TTITLE8=ll
TTITLE9=llç
TTITLE10=hgg
TTITLE11=lkhff
TTITLE12=,,liuyg
TTITLE13=4
TTITLE14=5
TTITLE15=kkhgfg
TTITLE16=,kjhh
TTITLE17=,lkhhhgh
TTITLE18=kmjkhh
EXTD=
EXTT0=
EXTT1=
EXTT2=
EXTT3=
EXTT4=
EXTT5=
EXTT6=
EXTT7=
EXTT8=
EXTT9=
EXTT10=
EXTT11=
EXTT12=
EXTT13=
EXTT14=
EXTT15=
EXTT16=
EXTT17=
EXTT18=
PLAYORDER=
